<mxfile host="app.diagrams.net" agent="Mozilla/5.0 (Macintosh; Intel Mac OS X 10_15_7) AppleWebKit/605.1.15 (KHTML, like Gecko) Version/18.2 Safari/605.1.15" version="26.0.4">
  <diagram name="Page-1" id="KFG2mwUh-qFei93tvh6I">
    <mxGraphModel dx="2860" dy="2928" grid="1" gridSize="10" guides="1" tooltips="1" connect="1" arrows="1" fold="1" page="1" pageScale="1" pageWidth="850" pageHeight="1100" math="0" shadow="0">
      <root>
        <mxCell id="0" />
        <mxCell id="1" parent="0" />
        <mxCell id="9R4c4qBeZF-JSUa0Og3P-10" value="" style="whiteSpace=wrap;html=1;" vertex="1" parent="1">
          <mxGeometry x="120" y="260" width="230" height="400" as="geometry" />
        </mxCell>
        <mxCell id="9R4c4qBeZF-JSUa0Og3P-11" value="iOS Game Application" style="text;html=1;align=center;verticalAlign=middle;resizable=0;points=[];autosize=1;strokeColor=none;fillColor=none;" vertex="1" parent="1">
          <mxGeometry x="165" y="220" width="140" height="30" as="geometry" />
        </mxCell>
        <mxCell id="9R4c4qBeZF-JSUa0Og3P-12" value="" style="whiteSpace=wrap;html=1;labelBorderColor=none;" vertex="1" parent="1">
          <mxGeometry x="135" y="270" width="205" height="100" as="geometry" />
        </mxCell>
        <mxCell id="9R4c4qBeZF-JSUa0Og3P-31" style="edgeStyle=orthogonalEdgeStyle;rounded=0;orthogonalLoop=1;jettySize=auto;html=1;exitX=0.75;exitY=0;exitDx=0;exitDy=0;entryX=0.75;entryY=1;entryDx=0;entryDy=0;" edge="1" parent="1" source="9R4c4qBeZF-JSUa0Og3P-13" target="9R4c4qBeZF-JSUa0Og3P-12">
          <mxGeometry relative="1" as="geometry" />
        </mxCell>
        <mxCell id="9R4c4qBeZF-JSUa0Og3P-13" value="Cocos API&amp;nbsp;&lt;div&gt;&lt;br&gt;&lt;/div&gt;&lt;div&gt;C++&lt;/div&gt;" style="whiteSpace=wrap;html=1;" vertex="1" parent="1">
          <mxGeometry x="135" y="440" width="205" height="60" as="geometry" />
        </mxCell>
        <mxCell id="9R4c4qBeZF-JSUa0Og3P-18" style="edgeStyle=orthogonalEdgeStyle;rounded=0;orthogonalLoop=1;jettySize=auto;html=1;exitX=0.5;exitY=0;exitDx=0;exitDy=0;entryX=0.5;entryY=1;entryDx=0;entryDy=0;" edge="1" parent="1" source="9R4c4qBeZF-JSUa0Og3P-14" target="9R4c4qBeZF-JSUa0Og3P-13">
          <mxGeometry relative="1" as="geometry">
            <Array as="points">
              <mxPoint x="238" y="540" />
              <mxPoint x="238" y="540" />
            </Array>
          </mxGeometry>
        </mxCell>
        <mxCell id="9R4c4qBeZF-JSUa0Og3P-14" value="Cocos Engine&amp;nbsp;&lt;div&gt;&lt;br&gt;&lt;/div&gt;&lt;div&gt;JS&lt;/div&gt;" style="whiteSpace=wrap;html=1;" vertex="1" parent="1">
          <mxGeometry x="135" y="560" width="205" height="60" as="geometry" />
        </mxCell>
        <mxCell id="9R4c4qBeZF-JSUa0Og3P-19" value="&lt;div style=&quot;text-align: start; white-space: normal;&quot; data-docx-has-block-data=&quot;false&quot; data-lark-html-role=&quot;root&quot; data-page-id=&quot;G65WdpuQ4oz34ux6LwRcXahCnle&quot;&gt;&lt;div class=&quot;old-record-id-JfNVdLXd7ouPhyxVloPcXa5Tnid&quot;&gt;jsb.reflection.callStaticMethod&lt;/div&gt;&lt;/div&gt;&lt;span style=&quot;text-align: start; white-space: normal;&quot; class=&quot;lark-record-clipboard&quot; data-lark-record-format=&quot;docx/text&quot; data-lark-record-data=&quot;{&amp;quot;rootId&amp;quot;:&amp;quot;G65WdpuQ4oz34ux6LwRcXahCnle&amp;quot;,&amp;quot;text&amp;quot;:{&amp;quot;initialAttributedTexts&amp;quot;:{&amp;quot;text&amp;quot;:{&amp;quot;0&amp;quot;:&amp;quot;jsb.reflection.callStaticMethod&amp;quot;},&amp;quot;attribs&amp;quot;:{&amp;quot;0&amp;quot;:&amp;quot;*0+v&amp;quot;}},&amp;quot;apool&amp;quot;:{&amp;quot;numToAttrib&amp;quot;:{&amp;quot;0&amp;quot;:[&amp;quot;author&amp;quot;,&amp;quot;7386475597276872707&amp;quot;]},&amp;quot;nextNum&amp;quot;:1}},&amp;quot;type&amp;quot;:&amp;quot;text&amp;quot;,&amp;quot;referenceRecordMap&amp;quot;:{},&amp;quot;extra&amp;quot;:{&amp;quot;channel&amp;quot;:&amp;quot;saas&amp;quot;,&amp;quot;pasteRandomId&amp;quot;:&amp;quot;3ca94a43-0ef9-4c52-bf41-041d5c519d65&amp;quot;,&amp;quot;mention_page_title&amp;quot;:{},&amp;quot;external_mention_url&amp;quot;:{}},&amp;quot;isKeepQuoteContainer&amp;quot;:false,&amp;quot;isFromCode&amp;quot;:false,&amp;quot;selection&amp;quot;:[{&amp;quot;id&amp;quot;:64,&amp;quot;type&amp;quot;:&amp;quot;text&amp;quot;,&amp;quot;selection&amp;quot;:{&amp;quot;start&amp;quot;:20,&amp;quot;end&amp;quot;:51},&amp;quot;recordId&amp;quot;:&amp;quot;JfNVdLXd7ouPhyxVloPcXa5Tnid&amp;quot;}],&amp;quot;payloadMap&amp;quot;:{},&amp;quot;isCut&amp;quot;:false}&quot;&gt;&lt;/span&gt;" style="text;html=1;align=center;verticalAlign=middle;resizable=0;points=[];autosize=1;strokeColor=none;fillColor=none;fontSize=6;" vertex="1" parent="1">
          <mxGeometry x="240" y="523" width="100" height="20" as="geometry" />
        </mxCell>
        <mxCell id="9R4c4qBeZF-JSUa0Og3P-20" value="" style="edgeStyle=none;orthogonalLoop=1;jettySize=auto;html=1;rounded=0;exitX=0.376;exitY=1;exitDx=0;exitDy=0;entryX=0.374;entryY=-0.006;entryDx=0;entryDy=0;entryPerimeter=0;exitPerimeter=0;" edge="1" parent="1" source="9R4c4qBeZF-JSUa0Og3P-13" target="9R4c4qBeZF-JSUa0Og3P-14">
          <mxGeometry width="100" relative="1" as="geometry">
            <mxPoint x="330" y="530" as="sourcePoint" />
            <mxPoint x="430" y="530" as="targetPoint" />
            <Array as="points" />
          </mxGeometry>
        </mxCell>
        <mxCell id="9R4c4qBeZF-JSUa0Og3P-21" value="script engine evalString()&amp;nbsp;" style="text;html=1;align=center;verticalAlign=middle;resizable=0;points=[];autosize=1;strokeColor=none;fillColor=none;fontSize=6;" vertex="1" parent="1">
          <mxGeometry x="120" y="520" width="90" height="20" as="geometry" />
        </mxCell>
        <mxCell id="9R4c4qBeZF-JSUa0Og3P-24" value="Other SDK" style="whiteSpace=wrap;html=1;" vertex="1" parent="1">
          <mxGeometry x="142.5" y="330" width="190" height="30" as="geometry" />
        </mxCell>
        <mxCell id="9R4c4qBeZF-JSUa0Og3P-28" value="365you SDK&lt;div&gt;OC / C++&lt;/div&gt;" style="text;html=1;align=center;verticalAlign=middle;resizable=0;points=[];autosize=1;strokeColor=none;fillColor=none;" vertex="1" parent="1">
          <mxGeometry x="180" y="280" width="90" height="40" as="geometry" />
        </mxCell>
        <mxCell id="9R4c4qBeZF-JSUa0Og3P-29" value="" style="edgeStyle=none;orthogonalLoop=1;jettySize=auto;html=1;rounded=0;exitX=0.13;exitY=1.003;exitDx=0;exitDy=0;entryX=0.127;entryY=0.011;entryDx=0;entryDy=0;entryPerimeter=0;exitPerimeter=0;" edge="1" parent="1" source="9R4c4qBeZF-JSUa0Og3P-12" target="9R4c4qBeZF-JSUa0Og3P-13">
          <mxGeometry width="100" relative="1" as="geometry">
            <mxPoint x="390" y="380" as="sourcePoint" />
            <mxPoint x="490" y="380" as="targetPoint" />
            <Array as="points" />
          </mxGeometry>
        </mxCell>
        <mxCell id="9R4c4qBeZF-JSUa0Og3P-30" value="OC __bridge桥接Native" style="text;html=1;align=center;verticalAlign=middle;resizable=0;points=[];autosize=1;strokeColor=none;fillColor=none;fontSize=7;" vertex="1" parent="1">
          <mxGeometry x="175" y="393" width="100" height="20" as="geometry" />
        </mxCell>
        <mxCell id="9R4c4qBeZF-JSUa0Og3P-32" value="Cocos API&amp;nbsp;&lt;div&gt;&lt;br&gt;&lt;/div&gt;&lt;div&gt;C++&lt;/div&gt;" style="whiteSpace=wrap;html=1;" vertex="1" parent="1">
          <mxGeometry x="1010" y="200" width="90" height="480" as="geometry" />
        </mxCell>
        <mxCell id="9R4c4qBeZF-JSUa0Og3P-61" style="edgeStyle=orthogonalEdgeStyle;rounded=0;orthogonalLoop=1;jettySize=auto;html=1;exitX=1;exitY=0.25;exitDx=0;exitDy=0;entryX=0.5;entryY=1;entryDx=0;entryDy=0;" edge="1" parent="1" source="9R4c4qBeZF-JSUa0Og3P-33" target="9R4c4qBeZF-JSUa0Og3P-46">
          <mxGeometry relative="1" as="geometry" />
        </mxCell>
        <mxCell id="9R4c4qBeZF-JSUa0Og3P-33" value="Cocos Engine&amp;nbsp;&lt;div&gt;&lt;br&gt;&lt;/div&gt;&lt;div&gt;JS&lt;/div&gt;" style="whiteSpace=wrap;html=1;" vertex="1" parent="1">
          <mxGeometry x="480" y="200" width="90" height="480" as="geometry" />
        </mxCell>
        <mxCell id="9R4c4qBeZF-JSUa0Og3P-95" style="edgeStyle=orthogonalEdgeStyle;rounded=0;orthogonalLoop=1;jettySize=auto;html=1;exitX=1;exitY=0.5;exitDx=0;exitDy=0;endArrow=none;endFill=0;" edge="1" parent="1" source="9R4c4qBeZF-JSUa0Og3P-34" target="9R4c4qBeZF-JSUa0Og3P-90">
          <mxGeometry relative="1" as="geometry" />
        </mxCell>
        <mxCell id="9R4c4qBeZF-JSUa0Og3P-34" value="&lt;span style=&quot;white-space: nowrap;&quot;&gt;365you SDK&lt;/span&gt;&lt;div style=&quot;white-space: nowrap;&quot;&gt;OC / C++&lt;/div&gt;" style="whiteSpace=wrap;html=1;labelBorderColor=none;" vertex="1" parent="1">
          <mxGeometry x="1530" y="200" width="90" height="480" as="geometry" />
        </mxCell>
        <mxCell id="9R4c4qBeZF-JSUa0Og3P-37" value="init" style="rounded=1;whiteSpace=wrap;html=1;" vertex="1" parent="1">
          <mxGeometry x="782.5" y="210" width="80" height="40" as="geometry" />
        </mxCell>
        <mxCell id="9R4c4qBeZF-JSUa0Og3P-38" value="login" style="rounded=1;whiteSpace=wrap;html=1;" vertex="1" parent="1">
          <mxGeometry x="782.5" y="270" width="80" height="40" as="geometry" />
        </mxCell>
        <mxCell id="9R4c4qBeZF-JSUa0Og3P-39" value="process" style="rounded=1;whiteSpace=wrap;html=1;" vertex="1" parent="1">
          <mxGeometry x="782.5" y="330" width="80" height="40" as="geometry" />
        </mxCell>
        <mxCell id="9R4c4qBeZF-JSUa0Og3P-40" value="action" style="rounded=1;whiteSpace=wrap;html=1;" vertex="1" parent="1">
          <mxGeometry x="782.5" y="390" width="80" height="40" as="geometry" />
        </mxCell>
        <mxCell id="9R4c4qBeZF-JSUa0Og3P-46" value="" style="shape=partialRectangle;whiteSpace=wrap;html=1;bottom=1;right=1;left=1;top=0;fillColor=none;routingCenterX=-0.5;rotation=90;" vertex="1" parent="1">
          <mxGeometry x="680" y="307.5" width="180" height="25" as="geometry" />
        </mxCell>
        <mxCell id="9R4c4qBeZF-JSUa0Og3P-48" value="&lt;div style=&quot;white-space: normal;&quot; data-docx-has-block-data=&quot;false&quot; data-lark-html-role=&quot;root&quot; data-page-id=&quot;G65WdpuQ4oz34ux6LwRcXahCnle&quot;&gt;&lt;div class=&quot;old-record-id-JfNVdLXd7ouPhyxVloPcXa5Tnid&quot;&gt;jsb.reflection.callStaticMethod&amp;nbsp;&lt;/div&gt;&lt;div class=&quot;old-record-id-JfNVdLXd7ouPhyxVloPcXa5Tnid&quot;&gt;&lt;br&gt;&lt;/div&gt;&lt;div class=&quot;old-record-id-JfNVdLXd7ouPhyxVloPcXa5Tnid&quot;&gt;invoke C++ Static method&lt;/div&gt;&lt;/div&gt;&lt;span style=&quot;white-space: normal;&quot; class=&quot;lark-record-clipboard&quot; data-lark-record-format=&quot;docx/text&quot; data-lark-record-data=&quot;{&amp;quot;rootId&amp;quot;:&amp;quot;G65WdpuQ4oz34ux6LwRcXahCnle&amp;quot;,&amp;quot;text&amp;quot;:{&amp;quot;initialAttributedTexts&amp;quot;:{&amp;quot;text&amp;quot;:{&amp;quot;0&amp;quot;:&amp;quot;jsb.reflection.callStaticMethod&amp;quot;},&amp;quot;attribs&amp;quot;:{&amp;quot;0&amp;quot;:&amp;quot;*0+v&amp;quot;}},&amp;quot;apool&amp;quot;:{&amp;quot;numToAttrib&amp;quot;:{&amp;quot;0&amp;quot;:[&amp;quot;author&amp;quot;,&amp;quot;7386475597276872707&amp;quot;]},&amp;quot;nextNum&amp;quot;:1}},&amp;quot;type&amp;quot;:&amp;quot;text&amp;quot;,&amp;quot;referenceRecordMap&amp;quot;:{},&amp;quot;extra&amp;quot;:{&amp;quot;channel&amp;quot;:&amp;quot;saas&amp;quot;,&amp;quot;pasteRandomId&amp;quot;:&amp;quot;3ca94a43-0ef9-4c52-bf41-041d5c519d65&amp;quot;,&amp;quot;mention_page_title&amp;quot;:{},&amp;quot;external_mention_url&amp;quot;:{}},&amp;quot;isKeepQuoteContainer&amp;quot;:false,&amp;quot;isFromCode&amp;quot;:false,&amp;quot;selection&amp;quot;:[{&amp;quot;id&amp;quot;:64,&amp;quot;type&amp;quot;:&amp;quot;text&amp;quot;,&amp;quot;selection&amp;quot;:{&amp;quot;start&amp;quot;:20,&amp;quot;end&amp;quot;:51},&amp;quot;recordId&amp;quot;:&amp;quot;JfNVdLXd7ouPhyxVloPcXa5Tnid&amp;quot;}],&amp;quot;payloadMap&amp;quot;:{},&amp;quot;isCut&amp;quot;:false}&quot;&gt;&lt;/span&gt;" style="text;html=1;align=center;verticalAlign=middle;resizable=0;points=[];autosize=1;strokeColor=none;fillColor=none;fontSize=12;" vertex="1" parent="1">
          <mxGeometry x="570" y="250" width="190" height="60" as="geometry" />
        </mxCell>
        <mxCell id="9R4c4qBeZF-JSUa0Og3P-50" style="edgeStyle=orthogonalEdgeStyle;rounded=0;orthogonalLoop=1;jettySize=auto;html=1;exitX=1;exitY=0;exitDx=0;exitDy=0;entryX=1;entryY=0.5;entryDx=0;entryDy=0;endArrow=none;endFill=0;" edge="1" parent="1" source="9R4c4qBeZF-JSUa0Og3P-49" target="9R4c4qBeZF-JSUa0Og3P-37">
          <mxGeometry relative="1" as="geometry" />
        </mxCell>
        <mxCell id="9R4c4qBeZF-JSUa0Og3P-51" style="edgeStyle=orthogonalEdgeStyle;rounded=0;orthogonalLoop=1;jettySize=auto;html=1;exitX=0;exitY=0;exitDx=0;exitDy=0;entryX=1;entryY=0.5;entryDx=0;entryDy=0;endArrow=none;endFill=0;" edge="1" parent="1" source="9R4c4qBeZF-JSUa0Og3P-49" target="9R4c4qBeZF-JSUa0Og3P-40">
          <mxGeometry relative="1" as="geometry" />
        </mxCell>
        <mxCell id="9R4c4qBeZF-JSUa0Og3P-52" style="edgeStyle=orthogonalEdgeStyle;rounded=0;orthogonalLoop=1;jettySize=auto;html=1;entryX=0;entryY=0.25;entryDx=0;entryDy=0;endArrow=none;endFill=0;" edge="1" parent="1" source="9R4c4qBeZF-JSUa0Og3P-49" target="9R4c4qBeZF-JSUa0Og3P-32">
          <mxGeometry relative="1" as="geometry" />
        </mxCell>
        <mxCell id="9R4c4qBeZF-JSUa0Og3P-49" value="" style="shape=partialRectangle;whiteSpace=wrap;html=1;bottom=1;right=1;left=1;top=0;fillColor=none;routingCenterX=-0.5;rotation=-90;" vertex="1" parent="1">
          <mxGeometry x="792.5" y="320" width="180" as="geometry" />
        </mxCell>
        <mxCell id="9R4c4qBeZF-JSUa0Og3P-53" value="onEvent" style="whiteSpace=wrap;html=1;" vertex="1" parent="1">
          <mxGeometry x="760" y="560" width="120" height="40" as="geometry" />
        </mxCell>
        <mxCell id="9R4c4qBeZF-JSUa0Og3P-57" value="ScriptEngine evalString&lt;div&gt;&lt;br&gt;&lt;div&gt;invoke global JS method&lt;/div&gt;&lt;/div&gt;" style="text;html=1;align=center;verticalAlign=middle;resizable=0;points=[];autosize=1;strokeColor=none;fillColor=none;" vertex="1" parent="1">
          <mxGeometry x="600" y="510" width="150" height="60" as="geometry" />
        </mxCell>
        <mxCell id="9R4c4qBeZF-JSUa0Og3P-63" value="" style="edgeStyle=none;orthogonalLoop=1;jettySize=auto;html=1;rounded=0;entryX=1;entryY=0.5;entryDx=0;entryDy=0;exitX=-0.017;exitY=0.793;exitDx=0;exitDy=0;exitPerimeter=0;" edge="1" parent="1" source="9R4c4qBeZF-JSUa0Og3P-32" target="9R4c4qBeZF-JSUa0Og3P-53">
          <mxGeometry width="100" relative="1" as="geometry">
            <mxPoint x="870" y="680" as="sourcePoint" />
            <mxPoint x="970" y="680" as="targetPoint" />
            <Array as="points" />
          </mxGeometry>
        </mxCell>
        <mxCell id="9R4c4qBeZF-JSUa0Og3P-64" style="edgeStyle=orthogonalEdgeStyle;rounded=0;orthogonalLoop=1;jettySize=auto;html=1;exitX=0;exitY=0.5;exitDx=0;exitDy=0;entryX=1.041;entryY=0.791;entryDx=0;entryDy=0;entryPerimeter=0;" edge="1" parent="1" source="9R4c4qBeZF-JSUa0Og3P-53" target="9R4c4qBeZF-JSUa0Og3P-33">
          <mxGeometry relative="1" as="geometry" />
        </mxCell>
        <mxCell id="9R4c4qBeZF-JSUa0Og3P-65" value="init" style="rounded=1;whiteSpace=wrap;html=1;" vertex="1" parent="1">
          <mxGeometry x="1300" y="193" width="80" height="40" as="geometry" />
        </mxCell>
        <mxCell id="9R4c4qBeZF-JSUa0Og3P-66" value="login" style="rounded=1;whiteSpace=wrap;html=1;" vertex="1" parent="1">
          <mxGeometry x="1300" y="253" width="80" height="40" as="geometry" />
        </mxCell>
        <mxCell id="9R4c4qBeZF-JSUa0Og3P-67" value="process" style="rounded=1;whiteSpace=wrap;html=1;" vertex="1" parent="1">
          <mxGeometry x="1300" y="313" width="80" height="40" as="geometry" />
        </mxCell>
        <mxCell id="9R4c4qBeZF-JSUa0Og3P-68" value="setCallback" style="rounded=1;whiteSpace=wrap;html=1;" vertex="1" parent="1">
          <mxGeometry x="1300" y="430" width="80" height="40" as="geometry" />
        </mxCell>
        <mxCell id="9R4c4qBeZF-JSUa0Og3P-69" style="edgeStyle=orthogonalEdgeStyle;rounded=0;orthogonalLoop=1;jettySize=auto;html=1;exitX=1;exitY=0;exitDx=0;exitDy=0;entryX=1;entryY=0.5;entryDx=0;entryDy=0;endArrow=none;endFill=0;" edge="1" parent="1" source="9R4c4qBeZF-JSUa0Og3P-71" target="9R4c4qBeZF-JSUa0Og3P-65">
          <mxGeometry relative="1" as="geometry" />
        </mxCell>
        <mxCell id="9R4c4qBeZF-JSUa0Og3P-70" style="edgeStyle=orthogonalEdgeStyle;rounded=0;orthogonalLoop=1;jettySize=auto;html=1;exitX=0;exitY=0;exitDx=0;exitDy=0;entryX=1;entryY=0.5;entryDx=0;entryDy=0;endArrow=none;endFill=0;" edge="1" parent="1" source="9R4c4qBeZF-JSUa0Og3P-71" target="9R4c4qBeZF-JSUa0Og3P-68">
          <mxGeometry relative="1" as="geometry" />
        </mxCell>
        <mxCell id="9R4c4qBeZF-JSUa0Og3P-71" value="" style="shape=partialRectangle;whiteSpace=wrap;html=1;bottom=1;right=1;left=1;top=0;fillColor=none;routingCenterX=-0.5;rotation=-90;" vertex="1" parent="1">
          <mxGeometry x="1310" y="303" width="180" as="geometry" />
        </mxCell>
        <mxCell id="9R4c4qBeZF-JSUa0Og3P-72" value="C++ Static method" style="text;html=1;align=center;verticalAlign=middle;resizable=0;points=[];autosize=1;strokeColor=none;fillColor=none;" vertex="1" parent="1">
          <mxGeometry x="885" y="281.5" width="120" height="30" as="geometry" />
        </mxCell>
        <mxCell id="9R4c4qBeZF-JSUa0Og3P-73" value="" style="edgeStyle=none;orthogonalLoop=1;jettySize=auto;html=1;rounded=0;entryX=0.021;entryY=0.215;entryDx=0;entryDy=0;entryPerimeter=0;endArrow=none;endFill=0;" edge="1" parent="1" source="9R4c4qBeZF-JSUa0Og3P-71" target="9R4c4qBeZF-JSUa0Og3P-34">
          <mxGeometry width="100" relative="1" as="geometry">
            <mxPoint x="1400" y="310" as="sourcePoint" />
            <mxPoint x="1660" y="360" as="targetPoint" />
            <Array as="points" />
          </mxGeometry>
        </mxCell>
        <mxCell id="9R4c4qBeZF-JSUa0Og3P-74" value="C++ Static method" style="text;html=1;align=center;verticalAlign=middle;resizable=0;points=[];autosize=1;strokeColor=none;fillColor=none;" vertex="1" parent="1">
          <mxGeometry x="1410" y="265" width="120" height="30" as="geometry" />
        </mxCell>
        <mxCell id="9R4c4qBeZF-JSUa0Og3P-75" value="action" style="rounded=1;whiteSpace=wrap;html=1;" vertex="1" parent="1">
          <mxGeometry x="1300" y="370" width="80" height="40" as="geometry" />
        </mxCell>
        <mxCell id="9R4c4qBeZF-JSUa0Og3P-79" style="edgeStyle=orthogonalEdgeStyle;rounded=0;orthogonalLoop=1;jettySize=auto;html=1;exitX=1;exitY=0;exitDx=0;exitDy=0;entryX=0;entryY=0.5;entryDx=0;entryDy=0;endArrow=none;endFill=0;" edge="1" parent="1" source="9R4c4qBeZF-JSUa0Og3P-76" target="9R4c4qBeZF-JSUa0Og3P-68">
          <mxGeometry relative="1" as="geometry">
            <Array as="points">
              <mxPoint x="1300" y="453" />
            </Array>
          </mxGeometry>
        </mxCell>
        <mxCell id="9R4c4qBeZF-JSUa0Og3P-76" value="" style="shape=partialRectangle;whiteSpace=wrap;html=1;bottom=1;right=1;left=1;top=0;fillColor=none;routingCenterX=-0.5;rotation=90;" vertex="1" parent="1">
          <mxGeometry x="1165.81" y="358.82" width="181.38" height="7" as="geometry" />
        </mxCell>
        <mxCell id="9R4c4qBeZF-JSUa0Og3P-82" value="callback" style="whiteSpace=wrap;html=1;" vertex="1" parent="1">
          <mxGeometry x="1279.64" y="560" width="120" height="40" as="geometry" />
        </mxCell>
        <mxCell id="9R4c4qBeZF-JSUa0Og3P-83" value="" style="edgeStyle=none;orthogonalLoop=1;jettySize=auto;html=1;rounded=0;entryX=1;entryY=0.5;entryDx=0;entryDy=0;exitX=0.004;exitY=0.898;exitDx=0;exitDy=0;exitPerimeter=0;" edge="1" parent="1" target="9R4c4qBeZF-JSUa0Og3P-82">
          <mxGeometry width="100" relative="1" as="geometry">
            <mxPoint x="1529.9999999999998" y="581.04" as="sourcePoint" />
            <mxPoint x="1401.64" y="580" as="targetPoint" />
            <Array as="points" />
          </mxGeometry>
        </mxCell>
        <mxCell id="9R4c4qBeZF-JSUa0Og3P-84" style="edgeStyle=orthogonalEdgeStyle;rounded=0;orthogonalLoop=1;jettySize=auto;html=1;exitX=0;exitY=0.5;exitDx=0;exitDy=0;entryX=1.004;entryY=0.79;entryDx=0;entryDy=0;entryPerimeter=0;" edge="1" parent="1" source="9R4c4qBeZF-JSUa0Og3P-82" target="9R4c4qBeZF-JSUa0Og3P-32">
          <mxGeometry relative="1" as="geometry" />
        </mxCell>
        <mxCell id="9R4c4qBeZF-JSUa0Og3P-94" value="" style="group" vertex="1" connectable="0" parent="1">
          <mxGeometry x="1670" y="300" width="150" height="277" as="geometry" />
        </mxCell>
        <mxCell id="9R4c4qBeZF-JSUa0Og3P-85" value="init" style="rounded=1;whiteSpace=wrap;html=1;" vertex="1" parent="9R4c4qBeZF-JSUa0Og3P-94">
          <mxGeometry x="70" width="80" height="40" as="geometry" />
        </mxCell>
        <mxCell id="9R4c4qBeZF-JSUa0Og3P-86" value="login" style="rounded=1;whiteSpace=wrap;html=1;" vertex="1" parent="9R4c4qBeZF-JSUa0Og3P-94">
          <mxGeometry x="70" y="60" width="80" height="40" as="geometry" />
        </mxCell>
        <mxCell id="9R4c4qBeZF-JSUa0Og3P-87" value="process" style="rounded=1;whiteSpace=wrap;html=1;" vertex="1" parent="9R4c4qBeZF-JSUa0Og3P-94">
          <mxGeometry x="70" y="120" width="80" height="40" as="geometry" />
        </mxCell>
        <mxCell id="9R4c4qBeZF-JSUa0Og3P-88" value="setCallback" style="rounded=1;whiteSpace=wrap;html=1;" vertex="1" parent="9R4c4qBeZF-JSUa0Og3P-94">
          <mxGeometry x="70" y="237" width="80" height="40" as="geometry" />
        </mxCell>
        <mxCell id="9R4c4qBeZF-JSUa0Og3P-89" value="action" style="rounded=1;whiteSpace=wrap;html=1;" vertex="1" parent="9R4c4qBeZF-JSUa0Og3P-94">
          <mxGeometry x="70" y="177" width="80" height="40" as="geometry" />
        </mxCell>
        <mxCell id="9R4c4qBeZF-JSUa0Og3P-91" style="edgeStyle=orthogonalEdgeStyle;rounded=0;orthogonalLoop=1;jettySize=auto;html=1;exitX=0;exitY=0;exitDx=0;exitDy=0;entryX=0;entryY=0.5;entryDx=0;entryDy=0;endArrow=none;endFill=0;" edge="1" parent="9R4c4qBeZF-JSUa0Og3P-94" source="9R4c4qBeZF-JSUa0Og3P-90" target="9R4c4qBeZF-JSUa0Og3P-85">
          <mxGeometry relative="1" as="geometry" />
        </mxCell>
        <mxCell id="9R4c4qBeZF-JSUa0Og3P-90" value="" style="shape=partialRectangle;whiteSpace=wrap;html=1;bottom=1;right=1;left=1;top=0;fillColor=none;routingCenterX=-0.5;rotation=90;" vertex="1" parent="9R4c4qBeZF-JSUa0Og3P-94">
          <mxGeometry x="-90" y="110" width="240" height="60" as="geometry" />
        </mxCell>
        <mxCell id="9R4c4qBeZF-JSUa0Og3P-93" style="edgeStyle=orthogonalEdgeStyle;rounded=0;orthogonalLoop=1;jettySize=auto;html=1;exitX=1;exitY=0;exitDx=0;exitDy=0;entryX=0;entryY=0.575;entryDx=0;entryDy=0;entryPerimeter=0;endArrow=none;endFill=0;" edge="1" parent="9R4c4qBeZF-JSUa0Og3P-94" source="9R4c4qBeZF-JSUa0Og3P-90" target="9R4c4qBeZF-JSUa0Og3P-88">
          <mxGeometry relative="1" as="geometry" />
        </mxCell>
        <mxCell id="9R4c4qBeZF-JSUa0Og3P-98" style="edgeStyle=orthogonalEdgeStyle;rounded=0;orthogonalLoop=1;jettySize=auto;html=1;exitX=0;exitY=0;exitDx=0;exitDy=0;entryX=-0.005;entryY=0.454;entryDx=0;entryDy=0;entryPerimeter=0;endArrow=none;endFill=0;" edge="1" parent="1" source="9R4c4qBeZF-JSUa0Og3P-76" target="9R4c4qBeZF-JSUa0Og3P-66">
          <mxGeometry relative="1" as="geometry" />
        </mxCell>
        <mxCell id="9R4c4qBeZF-JSUa0Og3P-99" value="" style="edgeStyle=none;orthogonalLoop=1;jettySize=auto;html=1;rounded=0;exitX=1.003;exitY=0.333;exitDx=0;exitDy=0;exitPerimeter=0;entryX=0.485;entryY=1;entryDx=0;entryDy=0;entryPerimeter=0;" edge="1" parent="1" source="9R4c4qBeZF-JSUa0Og3P-32" target="9R4c4qBeZF-JSUa0Og3P-76">
          <mxGeometry width="100" relative="1" as="geometry">
            <mxPoint x="1150" y="360" as="sourcePoint" />
            <mxPoint x="1250" y="360" as="targetPoint" />
            <Array as="points" />
          </mxGeometry>
        </mxCell>
        <mxCell id="9R4c4qBeZF-JSUa0Og3P-102" style="edgeStyle=orthogonalEdgeStyle;rounded=0;orthogonalLoop=1;jettySize=auto;html=1;exitX=1;exitY=0.5;exitDx=0;exitDy=0;entryX=0;entryY=0.5;entryDx=0;entryDy=0;" edge="1" parent="1" source="9R4c4qBeZF-JSUa0Og3P-101" target="9R4c4qBeZF-JSUa0Og3P-65">
          <mxGeometry relative="1" as="geometry" />
        </mxCell>
        <mxCell id="9R4c4qBeZF-JSUa0Og3P-101" value="App" style="rounded=0;whiteSpace=wrap;html=1;dashed=1;" vertex="1" parent="1">
          <mxGeometry x="1165.81" y="183" width="70" height="60" as="geometry" />
        </mxCell>
        <mxCell id="9R4c4qBeZF-JSUa0Og3P-107" value="" style="group;rounded=0;fillColor=default;gradientColor=none;strokeColor=default;" vertex="1" connectable="0" parent="1">
          <mxGeometry x="1920" y="40" width="180" height="160" as="geometry" />
        </mxCell>
        <mxCell id="9R4c4qBeZF-JSUa0Og3P-103" value="缓存持有 Root ViewController" style="text;html=1;align=left;verticalAlign=middle;resizable=0;points=[];autosize=1;strokeColor=none;fillColor=none;" vertex="1" parent="9R4c4qBeZF-JSUa0Og3P-107">
          <mxGeometry y="43" width="180" height="30" as="geometry" />
        </mxCell>
        <mxCell id="9R4c4qBeZF-JSUa0Og3P-104" value="365you SDK init instance" style="text;html=1;align=left;verticalAlign=middle;resizable=0;points=[];autosize=1;strokeColor=none;fillColor=none;" vertex="1" parent="9R4c4qBeZF-JSUa0Og3P-107">
          <mxGeometry width="160" height="30" as="geometry" />
        </mxCell>
        <mxCell id="9R4c4qBeZF-JSUa0Og3P-105" value="Base ViewController 初始化" style="text;html=1;align=left;verticalAlign=middle;resizable=0;points=[];autosize=1;strokeColor=none;fillColor=none;" vertex="1" parent="9R4c4qBeZF-JSUa0Og3P-107">
          <mxGeometry y="87" width="170" height="30" as="geometry" />
        </mxCell>
        <mxCell id="9R4c4qBeZF-JSUa0Og3P-106" value="读取 sdkInfo.plist 信息" style="text;html=1;align=left;verticalAlign=middle;resizable=0;points=[];autosize=1;strokeColor=none;fillColor=none;" vertex="1" parent="9R4c4qBeZF-JSUa0Og3P-107">
          <mxGeometry y="130" width="140" height="30" as="geometry" />
        </mxCell>
        <mxCell id="9R4c4qBeZF-JSUa0Og3P-108" style="edgeStyle=orthogonalEdgeStyle;rounded=0;orthogonalLoop=1;jettySize=auto;html=1;exitX=1;exitY=0.5;exitDx=0;exitDy=0;entryX=0.003;entryY=0.515;entryDx=0;entryDy=0;entryPerimeter=0;" edge="1" parent="1" source="9R4c4qBeZF-JSUa0Og3P-85" target="9R4c4qBeZF-JSUa0Og3P-105">
          <mxGeometry relative="1" as="geometry">
            <mxPoint x="1840" y="100" as="targetPoint" />
          </mxGeometry>
        </mxCell>
        <mxCell id="9R4c4qBeZF-JSUa0Og3P-111" style="edgeStyle=orthogonalEdgeStyle;rounded=0;orthogonalLoop=1;jettySize=auto;html=1;exitX=0.5;exitY=0;exitDx=0;exitDy=0;entryX=0;entryY=0.5;entryDx=0;entryDy=0;" edge="1" parent="1" source="9R4c4qBeZF-JSUa0Og3P-110" target="9R4c4qBeZF-JSUa0Og3P-112">
          <mxGeometry relative="1" as="geometry">
            <mxPoint x="2580" y="-450" as="targetPoint" />
          </mxGeometry>
        </mxCell>
        <mxCell id="9R4c4qBeZF-JSUa0Og3P-113" value="TRUE" style="edgeLabel;html=1;align=center;verticalAlign=middle;resizable=0;points=[];fontStyle=1;fontSize=14;" vertex="1" connectable="0" parent="9R4c4qBeZF-JSUa0Og3P-111">
          <mxGeometry x="-0.6136" y="-2" relative="1" as="geometry">
            <mxPoint as="offset" />
          </mxGeometry>
        </mxCell>
        <mxCell id="9R4c4qBeZF-JSUa0Og3P-116" style="edgeStyle=orthogonalEdgeStyle;rounded=0;orthogonalLoop=1;jettySize=auto;html=1;exitX=0.5;exitY=1;exitDx=0;exitDy=0;entryX=0;entryY=0.5;entryDx=0;entryDy=0;" edge="1" parent="1" source="9R4c4qBeZF-JSUa0Og3P-110" target="9R4c4qBeZF-JSUa0Og3P-119">
          <mxGeometry relative="1" as="geometry">
            <mxPoint x="2690" y="-97.00000000000011" as="targetPoint" />
          </mxGeometry>
        </mxCell>
        <mxCell id="9R4c4qBeZF-JSUa0Og3P-117" value="FALSE" style="edgeLabel;html=1;align=center;verticalAlign=middle;resizable=0;points=[];fontStyle=1;fontSize=14;" vertex="1" connectable="0" parent="9R4c4qBeZF-JSUa0Og3P-116">
          <mxGeometry x="-0.6953" relative="1" as="geometry">
            <mxPoint as="offset" />
          </mxGeometry>
        </mxCell>
        <mxCell id="9R4c4qBeZF-JSUa0Og3P-118" value="isAuto" style="edgeLabel;html=1;align=center;verticalAlign=middle;resizable=0;points=[];fontStyle=1;fontSize=14;" vertex="1" connectable="0" parent="9R4c4qBeZF-JSUa0Og3P-116">
          <mxGeometry x="0.3949" y="-2" relative="1" as="geometry">
            <mxPoint as="offset" />
          </mxGeometry>
        </mxCell>
        <mxCell id="9R4c4qBeZF-JSUa0Og3P-110" value="sdkConfig.plist&lt;div&gt;&lt;div&gt;&lt;br&gt;&lt;div&gt;logincenter ?&lt;/div&gt;&lt;/div&gt;&lt;/div&gt;" style="rhombus;whiteSpace=wrap;html=1;" vertex="1" parent="1">
          <mxGeometry x="2420" y="-270" width="190" height="80" as="geometry" />
        </mxCell>
        <mxCell id="9R4c4qBeZF-JSUa0Og3P-128" style="edgeStyle=orthogonalEdgeStyle;rounded=0;orthogonalLoop=1;jettySize=auto;html=1;exitX=1;exitY=0.5;exitDx=0;exitDy=0;entryX=0;entryY=0.5;entryDx=0;entryDy=0;" edge="1" parent="1" source="9R4c4qBeZF-JSUa0Og3P-112" target="9R4c4qBeZF-JSUa0Og3P-127">
          <mxGeometry relative="1" as="geometry" />
        </mxCell>
        <mxCell id="9R4c4qBeZF-JSUa0Og3P-130" value="&lt;p style=&quot;margin: 0px; font-style: normal; font-variant-caps: normal; font-stretch: normal; line-height: normal; font-family: Menlo; font-size-adjust: none; font-kerning: auto; font-variant-alternates: normal; font-variant-ligatures: normal; font-variant-numeric: normal; font-variant-east-asian: normal; font-variant-position: normal; font-feature-settings: normal; font-optical-sizing: auto; font-variation-settings: normal; color: rgba(0, 0, 0, 0.85);&quot;&gt;LoginType_88LoginCenter = 8&lt;/p&gt;" style="edgeLabel;html=1;align=center;verticalAlign=middle;resizable=0;points=[];fontSize=14;fontStyle=1" vertex="1" connectable="0" parent="9R4c4qBeZF-JSUa0Og3P-128">
          <mxGeometry x="-0.1021" y="-3" relative="1" as="geometry">
            <mxPoint as="offset" />
          </mxGeometry>
        </mxCell>
        <mxCell id="9R4c4qBeZF-JSUa0Og3P-112" value="&lt;font style=&quot;font-size: 16px;&quot;&gt;&lt;span style=&quot;caret-color: rgb(11, 79, 121); color: rgb(11, 79, 121); font-family: Menlo; background-color: rgb(153, 255, 153);&quot;&gt;&lt;span&gt;PlatformController&lt;/span&gt;&lt;b&gt;&amp;nbsp;&lt;/b&gt;&lt;/span&gt;&lt;/font&gt;&lt;div&gt;&lt;font style=&quot;font-size: 16px;&quot;&gt;&lt;span style=&quot;color: rgb(100, 56, 32); font-family: Menlo; background-color: rgb(255, 255, 255);&quot;&gt;&lt;br&gt;&lt;/span&gt;&lt;/font&gt;&lt;/div&gt;&lt;div&gt;&lt;font style=&quot;font-size: 16px;&quot;&gt;&lt;span style=&quot;color: rgb(100, 56, 32); font-family: Menlo; background-color: rgb(255, 255, 255);&quot;&gt;lbzz_88LoginWithType&lt;/span&gt;&lt;/font&gt;&lt;div&gt;&lt;font style=&quot;font-size: 16px;&quot;&gt;&lt;br&gt;&lt;/font&gt;&lt;/div&gt;&lt;div&gt;&lt;font style=&quot;font-size: 16px;&quot;&gt;CENTER_LOGIN&lt;/font&gt;&lt;br&gt;&lt;/div&gt;&lt;/div&gt;" style="whiteSpace=wrap;html=1;" vertex="1" parent="1">
          <mxGeometry x="2730" y="-451.5" width="290" height="133" as="geometry" />
        </mxCell>
        <mxCell id="9R4c4qBeZF-JSUa0Og3P-121" style="edgeStyle=orthogonalEdgeStyle;rounded=0;orthogonalLoop=1;jettySize=auto;html=1;exitX=0.5;exitY=0;exitDx=0;exitDy=0;entryX=0;entryY=0.5;entryDx=0;entryDy=0;" edge="1" parent="1" source="9R4c4qBeZF-JSUa0Og3P-119" target="9R4c4qBeZF-JSUa0Og3P-126">
          <mxGeometry relative="1" as="geometry">
            <mxPoint x="2849.9999999999995" y="-240" as="targetPoint" />
          </mxGeometry>
        </mxCell>
        <mxCell id="9R4c4qBeZF-JSUa0Og3P-122" value="TRUE" style="edgeLabel;html=1;align=center;verticalAlign=middle;resizable=0;points=[];fontStyle=1;fontSize=14;" vertex="1" connectable="0" parent="9R4c4qBeZF-JSUa0Og3P-121">
          <mxGeometry x="-0.663" y="-1" relative="1" as="geometry">
            <mxPoint as="offset" />
          </mxGeometry>
        </mxCell>
        <mxCell id="9R4c4qBeZF-JSUa0Og3P-124" style="edgeStyle=orthogonalEdgeStyle;rounded=0;orthogonalLoop=1;jettySize=auto;html=1;exitX=0.5;exitY=1;exitDx=0;exitDy=0;entryX=0;entryY=0.5;entryDx=0;entryDy=0;" edge="1" parent="1" source="9R4c4qBeZF-JSUa0Og3P-119" target="9R4c4qBeZF-JSUa0Og3P-123">
          <mxGeometry relative="1" as="geometry" />
        </mxCell>
        <mxCell id="9R4c4qBeZF-JSUa0Og3P-125" value="FALSE" style="edgeLabel;html=1;align=center;verticalAlign=middle;resizable=0;points=[];fontStyle=1;fontSize=14;" vertex="1" connectable="0" parent="9R4c4qBeZF-JSUa0Og3P-124">
          <mxGeometry x="-0.6649" y="1" relative="1" as="geometry">
            <mxPoint as="offset" />
          </mxGeometry>
        </mxCell>
        <mxCell id="9R4c4qBeZF-JSUa0Og3P-119" value="isAuto" style="rhombus;whiteSpace=wrap;html=1;" vertex="1" parent="1">
          <mxGeometry x="2690" y="-167" width="80" height="80" as="geometry" />
        </mxCell>
        <mxCell id="9R4c4qBeZF-JSUa0Og3P-123" value="&lt;strike&gt;切换帐号&lt;/strike&gt;" style="whiteSpace=wrap;html=1;" vertex="1" parent="1">
          <mxGeometry x="2850" y="-50" width="120" height="60" as="geometry" />
        </mxCell>
        <mxCell id="9R4c4qBeZF-JSUa0Og3P-131" style="edgeStyle=orthogonalEdgeStyle;rounded=0;orthogonalLoop=1;jettySize=auto;html=1;exitX=1;exitY=0.5;exitDx=0;exitDy=0;entryX=0.5;entryY=1;entryDx=0;entryDy=0;" edge="1" parent="1" source="9R4c4qBeZF-JSUa0Og3P-126" target="9R4c4qBeZF-JSUa0Og3P-127">
          <mxGeometry relative="1" as="geometry" />
        </mxCell>
        <mxCell id="9R4c4qBeZF-JSUa0Og3P-132" value="&lt;p style=&quot;margin: 0px; font-style: normal; font-variant-caps: normal; font-stretch: normal; line-height: normal; font-family: Menlo; font-size-adjust: none; font-kerning: auto; font-variant-alternates: normal; font-variant-ligatures: normal; font-variant-numeric: normal; font-variant-east-asian: normal; font-variant-position: normal; font-feature-settings: normal; font-optical-sizing: auto; font-variation-settings: normal; color: rgba(0, 0, 0, 0.85);&quot;&gt;LoginTypeDefault = &lt;span style=&quot;color: #1c00cf&quot;&gt;1&lt;/span&gt;&lt;/p&gt;" style="edgeLabel;html=1;align=center;verticalAlign=middle;resizable=0;points=[];fontSize=14;fontStyle=1" vertex="1" connectable="0" parent="9R4c4qBeZF-JSUa0Og3P-131">
          <mxGeometry x="-0.3127" y="1" relative="1" as="geometry">
            <mxPoint as="offset" />
          </mxGeometry>
        </mxCell>
        <mxCell id="9R4c4qBeZF-JSUa0Og3P-126" value="&lt;font style=&quot;font-size: 16px;&quot;&gt;&lt;span style=&quot;caret-color: rgb(11, 79, 121); color: rgb(11, 79, 121); font-family: Menlo; background-color: rgb(153, 255, 153);&quot;&gt;PlatformController&lt;b&gt;&amp;nbsp;&lt;/b&gt;&lt;/span&gt;&lt;/font&gt;&lt;div&gt;&lt;font style=&quot;font-size: 16px;&quot;&gt;&lt;span style=&quot;color: rgb(100, 56, 32); font-family: Menlo; background-color: rgb(255, 255, 255);&quot;&gt;&lt;br&gt;&lt;/span&gt;&lt;/font&gt;&lt;/div&gt;&lt;p style=&quot;margin: 0px; font-style: normal; font-variant-caps: normal; font-stretch: normal; line-height: normal; font-family: Menlo; font-size-adjust: none; font-kerning: auto; font-variant-alternates: normal; font-variant-ligatures: normal; font-variant-numeric: normal; font-variant-east-asian: normal; font-variant-position: normal; font-feature-settings: normal; font-optical-sizing: auto; font-variation-settings: normal; color: rgb(100, 56, 32); background-color: rgb(255, 255, 255);&quot;&gt;&lt;font style=&quot;font-size: 16px;&quot;&gt;lbzz_guestLogin&lt;/font&gt;&lt;/p&gt;&lt;div&gt;&lt;br&gt;&lt;/div&gt;&lt;div&gt;&lt;p style=&quot;margin: 0px; font-style: normal; font-variant-caps: normal; font-stretch: normal; line-height: normal; font-family: Menlo; font-size-adjust: none; font-kerning: auto; font-variant-alternates: normal; font-variant-ligatures: normal; font-variant-numeric: normal; font-variant-east-asian: normal; font-variant-position: normal; font-feature-settings: normal; font-optical-sizing: auto; font-variation-settings: normal; color: rgb(50, 109, 116); background-color: rgb(255, 255, 255);&quot;&gt;&lt;font style=&quot;font-size: 14px;&quot;&gt;LoginTypeDefault&lt;/font&gt;&lt;/p&gt;&lt;/div&gt;" style="whiteSpace=wrap;html=1;" vertex="1" parent="1">
          <mxGeometry x="2850" y="-300" width="310" height="130" as="geometry" />
        </mxCell>
        <mxCell id="9R4c4qBeZF-JSUa0Og3P-127" value="&lt;span style=&quot;color: rgb(11, 79, 121); font-family: Menlo; background-color: rgb(255, 255, 255);&quot;&gt;&lt;font style=&quot;font-size: 16px;&quot;&gt;YouUserInfo&lt;/font&gt;&lt;/span&gt;&lt;div&gt;&lt;font style=&quot;font-size: 16px;&quot;&gt;&lt;br&gt;&lt;/font&gt;&lt;/div&gt;&lt;div&gt;&lt;font style=&quot;font-size: 16px;&quot;&gt;senLoginType(loginType: type, loginBlock:loginResult)&amp;nbsp;&lt;/font&gt;&lt;/div&gt;&lt;div&gt;&lt;font style=&quot;font-size: 16px;&quot;&gt;&lt;br&gt;&lt;/font&gt;&lt;/div&gt;&lt;div&gt;&lt;font style=&quot;font-size: 16px;&quot;&gt;统一登录请求API&lt;/font&gt;&lt;/div&gt;" style="whiteSpace=wrap;html=1;fillColor=#d5e8d4;strokeColor=#82b366;" vertex="1" parent="1">
          <mxGeometry x="3390" y="-448.25" width="390" height="126.5" as="geometry" />
        </mxCell>
        <mxCell id="9R4c4qBeZF-JSUa0Og3P-138" style="edgeStyle=orthogonalEdgeStyle;rounded=0;orthogonalLoop=1;jettySize=auto;html=1;exitX=0;exitY=0.5;exitDx=0;exitDy=0;entryX=1;entryY=0.5;entryDx=0;entryDy=0;" edge="1" parent="1" source="9R4c4qBeZF-JSUa0Og3P-133" target="9R4c4qBeZF-JSUa0Og3P-127">
          <mxGeometry relative="1" as="geometry" />
        </mxCell>
        <mxCell id="9R4c4qBeZF-JSUa0Og3P-139" value="loginResultCallback" style="edgeLabel;html=1;align=center;verticalAlign=middle;resizable=0;points=[];fontSize=16;fontStyle=1" vertex="1" connectable="0" parent="9R4c4qBeZF-JSUa0Og3P-138">
          <mxGeometry x="-0.0354" y="-1" relative="1" as="geometry">
            <mxPoint as="offset" />
          </mxGeometry>
        </mxCell>
        <mxCell id="9R4c4qBeZF-JSUa0Og3P-150" style="edgeStyle=orthogonalEdgeStyle;rounded=0;orthogonalLoop=1;jettySize=auto;html=1;exitX=0.5;exitY=1;exitDx=0;exitDy=0;entryX=0.5;entryY=0;entryDx=0;entryDy=0;" edge="1" parent="1" source="9R4c4qBeZF-JSUa0Og3P-133" target="9R4c4qBeZF-JSUa0Og3P-149">
          <mxGeometry relative="1" as="geometry" />
        </mxCell>
        <mxCell id="9R4c4qBeZF-JSUa0Og3P-133" value="&lt;p style=&quot;margin: 0px; font-style: normal; font-variant-caps: normal; font-stretch: normal; line-height: normal; font-family: Menlo; font-size-adjust: none; font-kerning: auto; font-variant-alternates: normal; font-variant-ligatures: normal; font-variant-numeric: normal; font-variant-east-asian: normal; font-variant-position: normal; font-feature-settings: normal; font-optical-sizing: auto; font-variation-settings: normal; color: rgb(15, 104, 160); background-color: rgb(255, 255, 255);&quot;&gt;&lt;span style=&quot;caret-color: rgb(11, 79, 121); color: rgb(11, 79, 121); background-color: rgb(153, 255, 153);&quot;&gt;PlatformController&lt;/span&gt;&lt;br&gt;&lt;/p&gt;&lt;p style=&quot;margin: 0px; font-style: normal; font-variant-caps: normal; font-stretch: normal; line-height: normal; font-family: Menlo; font-size-adjust: none; font-kerning: auto; font-variant-alternates: normal; font-variant-ligatures: normal; font-variant-numeric: normal; font-variant-east-asian: normal; font-variant-position: normal; font-feature-settings: normal; font-optical-sizing: auto; font-variation-settings: normal; color: rgb(15, 104, 160); background-color: rgb(255, 255, 255);&quot;&gt;&lt;br&gt;&lt;/p&gt;&lt;p style=&quot;margin: 0px; font-style: normal; font-variant-caps: normal; font-stretch: normal; line-height: normal; font-family: Menlo; font-size-adjust: none; font-kerning: auto; font-variant-alternates: normal; font-variant-ligatures: normal; font-variant-numeric: normal; font-variant-east-asian: normal; font-variant-position: normal; font-feature-settings: normal; font-optical-sizing: auto; font-variation-settings: normal; color: rgb(15, 104, 160); background-color: rgb(255, 255, 255);&quot;&gt;loginResultWithType&lt;/p&gt;&lt;p style=&quot;margin: 0px; font-style: normal; font-variant-caps: normal; font-stretch: normal; line-height: normal; font-family: Menlo; font-size-adjust: none; font-kerning: auto; font-variant-alternates: normal; font-variant-ligatures: normal; font-variant-numeric: normal; font-variant-east-asian: normal; font-variant-position: normal; font-feature-settings: normal; font-optical-sizing: auto; font-variation-settings: normal; color: rgb(15, 104, 160); background-color: rgb(255, 255, 255);&quot;&gt;&lt;br&gt;&lt;/p&gt;&lt;p style=&quot;margin: 0px; font-style: normal; font-variant-caps: normal; font-stretch: normal; line-height: normal; font-family: Menlo; font-size-adjust: none; font-kerning: auto; font-variant-alternates: normal; font-variant-ligatures: normal; font-variant-numeric: normal; font-variant-east-asian: normal; font-variant-position: normal; font-feature-settings: normal; font-optical-sizing: auto; font-variation-settings: normal; color: rgb(15, 104, 160); background-color: rgb(255, 255, 255);&quot;&gt;统一登录结果处理block&lt;/p&gt;" style="whiteSpace=wrap;html=1;fontSize=16;" vertex="1" parent="1">
          <mxGeometry x="4050" y="-459.25" width="300" height="148.5" as="geometry" />
        </mxCell>
        <mxCell id="9R4c4qBeZF-JSUa0Og3P-145" style="edgeStyle=orthogonalEdgeStyle;rounded=0;orthogonalLoop=1;jettySize=auto;html=1;exitX=0.5;exitY=0;exitDx=0;exitDy=0;entryX=0;entryY=0.5;entryDx=0;entryDy=0;" edge="1" parent="1" source="9R4c4qBeZF-JSUa0Og3P-141" target="9R4c4qBeZF-JSUa0Og3P-143">
          <mxGeometry relative="1" as="geometry" />
        </mxCell>
        <mxCell id="9R4c4qBeZF-JSUa0Og3P-147" value="&lt;p style=&quot;margin: 0px; font-style: normal; font-variant-caps: normal; font-stretch: normal; line-height: normal; font-family: Menlo; font-size-adjust: none; font-kerning: auto; font-variant-alternates: normal; font-variant-ligatures: normal; font-variant-numeric: normal; font-variant-east-asian: normal; font-variant-position: normal; font-feature-settings: normal; font-optical-sizing: auto; font-variation-settings: normal; color: rgb(50, 109, 116);&quot;&gt;LoginTypeDefault&lt;/p&gt;" style="edgeLabel;html=1;align=center;verticalAlign=middle;resizable=0;points=[];fontSize=16;fontStyle=1" vertex="1" connectable="0" parent="9R4c4qBeZF-JSUa0Og3P-145">
          <mxGeometry x="-0.625" relative="1" as="geometry">
            <mxPoint as="offset" />
          </mxGeometry>
        </mxCell>
        <mxCell id="9R4c4qBeZF-JSUa0Og3P-146" style="edgeStyle=orthogonalEdgeStyle;rounded=0;orthogonalLoop=1;jettySize=auto;html=1;exitX=0.5;exitY=1;exitDx=0;exitDy=0;entryX=0;entryY=0.5;entryDx=0;entryDy=0;" edge="1" parent="1" source="9R4c4qBeZF-JSUa0Og3P-141" target="9R4c4qBeZF-JSUa0Og3P-144">
          <mxGeometry relative="1" as="geometry" />
        </mxCell>
        <mxCell id="9R4c4qBeZF-JSUa0Og3P-141" value="&lt;font style=&quot;font-size: 16px;&quot;&gt;LoginType&lt;/font&gt;" style="rhombus;whiteSpace=wrap;html=1;" vertex="1" parent="1">
          <mxGeometry x="4560" y="-425" width="250" height="80" as="geometry" />
        </mxCell>
        <mxCell id="9R4c4qBeZF-JSUa0Og3P-142" style="edgeStyle=orthogonalEdgeStyle;rounded=0;orthogonalLoop=1;jettySize=auto;html=1;exitX=1;exitY=0.5;exitDx=0;exitDy=0;entryX=0;entryY=0.5;entryDx=0;entryDy=0;" edge="1" parent="1" source="9R4c4qBeZF-JSUa0Og3P-133" target="9R4c4qBeZF-JSUa0Og3P-141">
          <mxGeometry relative="1" as="geometry">
            <mxPoint x="4390" y="-337.51" as="sourcePoint" />
            <mxPoint x="4090" y="-15.009999999999991" as="targetPoint" />
            <Array as="points">
              <mxPoint x="4550" y="-385" />
              <mxPoint x="4550" y="-385" />
            </Array>
          </mxGeometry>
        </mxCell>
        <mxCell id="9R4c4qBeZF-JSUa0Og3P-148" value="callback 方式" style="edgeLabel;html=1;align=center;verticalAlign=middle;resizable=0;points=[];fontSize=14;fontStyle=1" vertex="1" connectable="0" parent="9R4c4qBeZF-JSUa0Og3P-142">
          <mxGeometry x="-0.025" y="1" relative="1" as="geometry">
            <mxPoint as="offset" />
          </mxGeometry>
        </mxCell>
        <mxCell id="9R4c4qBeZF-JSUa0Og3P-143" value="LoginCallback" style="whiteSpace=wrap;html=1;" vertex="1" parent="1">
          <mxGeometry x="4770" y="-530" width="120" height="60" as="geometry" />
        </mxCell>
        <mxCell id="9R4c4qBeZF-JSUa0Og3P-144" value="onEvent" style="whiteSpace=wrap;html=1;" vertex="1" parent="1">
          <mxGeometry x="4780" y="-300" width="120" height="60" as="geometry" />
        </mxCell>
        <mxCell id="9R4c4qBeZF-JSUa0Og3P-152" style="edgeStyle=orthogonalEdgeStyle;rounded=0;orthogonalLoop=1;jettySize=auto;html=1;exitX=0;exitY=0.5;exitDx=0;exitDy=0;entryX=0.5;entryY=0;entryDx=0;entryDy=0;" edge="1" parent="1" source="9R4c4qBeZF-JSUa0Og3P-149" target="9R4c4qBeZF-JSUa0Og3P-151">
          <mxGeometry relative="1" as="geometry" />
        </mxCell>
        <mxCell id="9R4c4qBeZF-JSUa0Og3P-154" style="edgeStyle=orthogonalEdgeStyle;rounded=0;orthogonalLoop=1;jettySize=auto;html=1;exitX=1;exitY=0.5;exitDx=0;exitDy=0;entryX=0.5;entryY=0;entryDx=0;entryDy=0;" edge="1" parent="1" source="9R4c4qBeZF-JSUa0Og3P-149" target="9R4c4qBeZF-JSUa0Og3P-153">
          <mxGeometry relative="1" as="geometry" />
        </mxCell>
        <mxCell id="9R4c4qBeZF-JSUa0Og3P-149" value="&lt;font style=&quot;font-size: 16px;&quot;&gt;&lt;b&gt;login status&lt;/b&gt;&lt;/font&gt;" style="rhombus;whiteSpace=wrap;html=1;" vertex="1" parent="1">
          <mxGeometry x="4100" y="-120" width="200" height="80" as="geometry" />
        </mxCell>
        <mxCell id="9R4c4qBeZF-JSUa0Og3P-151" value="&lt;ul&gt;&lt;li&gt;显示登录成功View&lt;/li&gt;&lt;li&gt;App内购处理&lt;/li&gt;&lt;li&gt;实名认证处理、防沉迷处理&lt;/li&gt;&lt;li&gt;启动方式、push消息，onEvent给游戏&lt;/li&gt;&lt;li&gt;登录结果 callback&lt;/li&gt;&lt;li&gt;是否需要绑定手机号&lt;/li&gt;&lt;/ul&gt;" style="whiteSpace=wrap;html=1;align=left;fontSize=16;" vertex="1" parent="1">
          <mxGeometry x="3785" y="60" width="340" height="140" as="geometry" />
        </mxCell>
        <mxCell id="9R4c4qBeZF-JSUa0Og3P-153" value="&lt;ul&gt;&lt;li&gt;处理登录中心登录方式状态&lt;/li&gt;&lt;li&gt;非LoginTypeDefault登录方式，onEvent给游戏&lt;/li&gt;&lt;li&gt;LoginTypeDefault方式 Toast + onEvent给游戏&lt;/li&gt;&lt;/ul&gt;" style="whiteSpace=wrap;html=1;align=left;fontSize=16;" vertex="1" parent="1">
          <mxGeometry x="4270" y="60" width="390" height="140" as="geometry" />
        </mxCell>
        <mxCell id="9R4c4qBeZF-JSUa0Og3P-109" style="edgeStyle=orthogonalEdgeStyle;rounded=0;orthogonalLoop=1;jettySize=auto;html=1;exitX=1;exitY=0.5;exitDx=0;exitDy=0;entryX=0;entryY=0.5;entryDx=0;entryDy=0;" edge="1" parent="1" source="9R4c4qBeZF-JSUa0Og3P-86" target="9R4c4qBeZF-JSUa0Og3P-110">
          <mxGeometry relative="1" as="geometry">
            <mxPoint x="2120" y="380" as="targetPoint" />
            <Array as="points">
              <mxPoint x="2260" y="380" />
              <mxPoint x="2260" y="-230" />
            </Array>
          </mxGeometry>
        </mxCell>
        <mxCell id="9R4c4qBeZF-JSUa0Og3P-115" value="isAuto" style="edgeLabel;html=1;align=center;verticalAlign=middle;resizable=0;points=[];fontStyle=1;fontSize=14;" vertex="1" connectable="0" parent="9R4c4qBeZF-JSUa0Og3P-109">
          <mxGeometry x="-0.1005" y="2" relative="1" as="geometry">
            <mxPoint as="offset" />
          </mxGeometry>
        </mxCell>
        <mxCell id="9R4c4qBeZF-JSUa0Og3P-158" style="edgeStyle=orthogonalEdgeStyle;rounded=0;orthogonalLoop=1;jettySize=auto;html=1;exitX=0.5;exitY=0;exitDx=0;exitDy=0;entryX=0;entryY=0.5;entryDx=0;entryDy=0;" edge="1" parent="1" source="9R4c4qBeZF-JSUa0Og3P-155" target="9R4c4qBeZF-JSUa0Og3P-157">
          <mxGeometry relative="1" as="geometry" />
        </mxCell>
        <mxCell id="9R4c4qBeZF-JSUa0Og3P-159" value="async" style="edgeLabel;html=1;align=center;verticalAlign=middle;resizable=0;points=[];fontSize=16;fontStyle=1" vertex="1" connectable="0" parent="9R4c4qBeZF-JSUa0Og3P-158">
          <mxGeometry x="0.3508" relative="1" as="geometry">
            <mxPoint as="offset" />
          </mxGeometry>
        </mxCell>
        <mxCell id="9R4c4qBeZF-JSUa0Og3P-161" style="edgeStyle=orthogonalEdgeStyle;rounded=0;orthogonalLoop=1;jettySize=auto;html=1;exitX=0.5;exitY=1;exitDx=0;exitDy=0;entryX=0;entryY=0.5;entryDx=0;entryDy=0;" edge="1" parent="1" source="9R4c4qBeZF-JSUa0Og3P-155" target="9R4c4qBeZF-JSUa0Og3P-160">
          <mxGeometry relative="1" as="geometry" />
        </mxCell>
        <mxCell id="9R4c4qBeZF-JSUa0Og3P-163" value="sync" style="edgeLabel;html=1;align=center;verticalAlign=middle;resizable=0;points=[];fontSize=16;fontStyle=1" vertex="1" connectable="0" parent="9R4c4qBeZF-JSUa0Og3P-161">
          <mxGeometry x="0.3797" y="-1" relative="1" as="geometry">
            <mxPoint as="offset" />
          </mxGeometry>
        </mxCell>
        <mxCell id="9R4c4qBeZF-JSUa0Og3P-155" value="&lt;b&gt;async / sync&lt;/b&gt;" style="rhombus;whiteSpace=wrap;html=1;fontSize=16;" vertex="1" parent="1">
          <mxGeometry x="2410" y="1110" width="190" height="120" as="geometry" />
        </mxCell>
        <mxCell id="9R4c4qBeZF-JSUa0Og3P-156" style="edgeStyle=orthogonalEdgeStyle;rounded=0;orthogonalLoop=1;jettySize=auto;html=1;exitX=1;exitY=0.5;exitDx=0;exitDy=0;entryX=0;entryY=0.5;entryDx=0;entryDy=0;" edge="1" parent="1" source="9R4c4qBeZF-JSUa0Og3P-89" target="9R4c4qBeZF-JSUa0Og3P-155">
          <mxGeometry relative="1" as="geometry">
            <Array as="points">
              <mxPoint x="2260" y="497" />
              <mxPoint x="2260" y="1170" />
            </Array>
          </mxGeometry>
        </mxCell>
        <mxCell id="9R4c4qBeZF-JSUa0Og3P-162" value="code | msg" style="edgeLabel;html=1;align=center;verticalAlign=middle;resizable=0;points=[];fontSize=16;fontStyle=1" vertex="1" connectable="0" parent="9R4c4qBeZF-JSUa0Og3P-156">
          <mxGeometry x="0.2299" y="-2" relative="1" as="geometry">
            <mxPoint as="offset" />
          </mxGeometry>
        </mxCell>
        <mxCell id="9R4c4qBeZF-JSUa0Og3P-157" value="&lt;span style=&quot;background-color: light-dark(rgb(255, 204, 153), rgb(237, 237, 237));&quot;&gt;&lt;span style=&quot;color: rgb(28, 70, 74); font-family: Menlo;&quot;&gt;sdk_api&lt;/span&gt;&lt;span style=&quot;font-family: Menlo; color: rgba(0, 0, 0, 0.85);&quot;&gt;::&lt;/span&gt;&lt;span style=&quot;font-family: Menlo; color: rgb(15, 104, 160);&quot;&gt;action&lt;/span&gt;&lt;/span&gt;&lt;div&gt;&lt;br&gt;&lt;/div&gt;&lt;div&gt;同步return action事件结果&amp;nbsp;&lt;/div&gt;" style="whiteSpace=wrap;html=1;fontSize=16;" vertex="1" parent="1">
          <mxGeometry x="2680" y="970" width="210" height="100" as="geometry" />
        </mxCell>
        <mxCell id="9R4c4qBeZF-JSUa0Og3P-160" value="&lt;div&gt;具体实现method&lt;/div&gt;&lt;div&gt;&lt;br&gt;&lt;/div&gt;&lt;div&gt;onEvent 事件结果&amp;nbsp;&lt;br&gt;&lt;/div&gt;" style="whiteSpace=wrap;html=1;fontSize=16;" vertex="1" parent="1">
          <mxGeometry x="2680" y="1270" width="210" height="100" as="geometry" />
        </mxCell>
        <mxCell id="9R4c4qBeZF-JSUa0Og3P-164" value="sd&amp;nbsp;" style="text;strokeColor=none;align=center;fillColor=none;html=1;verticalAlign=middle;whiteSpace=wrap;rounded=0;" vertex="1" parent="1">
          <mxGeometry x="3000" y="790" width="60" height="30" as="geometry" />
        </mxCell>
      </root>
    </mxGraphModel>
  </diagram>
</mxfile>
